<svg version="1.1" id="Layer_1" xmlns="http://www.w3.org/2000/svg" x="0" y="0" width="512" height="512" xml:space="preserve"><path d="m497.938 430.063-62.281-62.281a257.756 257.756 0 0 1-67.875 67.875l62.281 62.281c18.75 18.75 49.156 18.75 67.875 0 18.75-18.75 18.75-49.125 0-67.875zM448 224C448 100.281 347.719 0 224 0S0 100.281 0 224s100.281 224 224 224 224-100.281 224-224zM224 400c-97.047 0-176-78.969-176-176 0-97.047 78.953-176 176-176 97.031 0 176 78.953 176 176 0 97.031-78.969 176-176 176z"/></svg>